{
	"asset" : {
		"generator" : "FME 2019.0.0.0 Beta",
		"version" : "2.0"
	},
	"images" : [
		{
			"uri" : "textures/Tile_+005_+006_L22_00000411100_0.jpg"
		}
	],
	"samplers" : [
		{
			"wrapS" : 10497,
			"wrapT" : 10497
		}
	],
	"textures" : [
		{
			"source" : 0,
			"sampler" : 0
		}
	],
	"materials" : [
		{
			"pbrMetallicRoughness" : {
				"baseColorTexture" : {
					"index" : 0,
					"texCoord" : 0
				},
				"roughnessFactor" : 1,
				"metallicFactor" : 0.5
			},
			"emissiveFactor" : [ 0, 0, 0 ]
		},
		{
			"pbrMetallicRoughness" : {
				"baseColorTexture" : {
					"index" : 0,
					"texCoord" : 0
				},
				"roughnessFactor" : 1,
				"metallicFactor" : 0.5
			},
			"emissiveFactor" : [ 0, 0, 0 ]
		}
	],
	"meshes" : [
		{
			"primitives" : [
				{
					"attributes" : {
						"POSITION" : 0,
						"TEXCOORD_0" : 1
					},
					"indices" : 2,
					"material" : 0,
					"mode" : 4
				}
			]
		}
	],
	"nodes" : [
		{
			"matrix" : [ 1, 0, 0, 0, 0, 0, -1, 0, 0, 1, 0, 0, 0, 0, 0, 1 ],
			"mesh" : 0
		}
	],
	"scenes" : [
		{
			"nodes" : [ 0 ]
		}
	],
	"scene" : 0,
	"accessors" : [
		{
			"bufferView" : 0,
			"byteOffset" : 0,
			"componentType" : 5126,
			"count" : 8244,
			"type" : "VEC3",
			"min" : [ -915.8782348632812, -2285.4560546875, 184.92352294921875 ],
			"max" : [ -889.9533081054688, -2266.23046875, 211.97161865234375 ]
		},
		{
			"bufferView" : 1,
			"byteOffset" : 0,
			"componentType" : 5126,
			"count" : 8244,
			"type" : "VEC2",
			"min" : [ 0.0007729281205683947, 0.0014677643775939941 ],
			"max" : [ 0.999573826789856, 0.9441037178039551 ]
		},
		{
			"bufferView" : 2,
			"byteOffset" : 0,
			"componentType" : 5123,
			"count" : 37656,
			"type" : "SCALAR",
			"min" : [ 0 ],
			"max" : [ 8243 ]
		}
	],
	"bufferViews" : [
		{
			"buffer" : 0,
			"byteOffset" : 0,
			"byteLength" : 98928,
			"target" : 34962
		},
		{
			"buffer" : 0,
			"byteOffset" : 98928,
			"byteLength" : 65952,
			"target" : 34962
		},
		{
			"buffer" : 0,
			"byteOffset" : 164880,
			"byteLength" : 75312,
			"target" : 34963
		}
	],
	"buffers" : [
		{
			"uri" : "NewFeatureType.bin",
			"byteLength" : 240192
		}
	]
}